HIERARCHY
ROOT Hips
{
	OFFSET 0.000000 0.000000 0.000000
	CHANNELS 6 Xposition Yposition Zposition Zrotation Yrotation Xrotation 
	JOINT LHipJoint
	{
		OFFSET 0.000000 0.000000 0.000000
		CHANNELS 3 Zrotation Yrotation Xrotation
		JOINT LeftUpLeg
		{
			OFFSET 1.363060 -1.794630 0.839290
			CHANNELS 3 Zrotation Yrotation Xrotation
			JOINT LeftLeg
			{
				OFFSET 2.448110 -6.726130 0.000000
				CHANNELS 3 Zrotation Yrotation Xrotation
				JOINT LeftFoot
				{
					OFFSET 2.562200 -7.039590 0.000000
					CHANNELS 3 Zrotation Yrotation Xrotation
					JOINT LeftToeBase
					{
						OFFSET 0.157640 -0.433110 2.322550
						CHANNELS 3 Zrotation Yrotation Xrotation
						End Site
						{
							OFFSET 0.000000 0.000000 0.000000
						}
					}
				}
			}
		}
	}
	JOINT RHipJoint
	{
		OFFSET 0.000000 0.000000 0.000000
		CHANNELS 3 Zrotation Yrotation Xrotation
		JOINT RightUpLeg
		{
			OFFSET -1.305520 -1.794630 0.839290
			CHANNELS 3 Zrotation Yrotation Xrotation
			JOINT RightLeg
			{
				OFFSET -2.542530 -6.985550 0.000000
				CHANNELS 3 Zrotation Yrotation Xrotation
				JOINT RightFoot
				{
					OFFSET -2.568260 -7.056230 0.000000
					CHANNELS 3 Zrotation Yrotation Xrotation
					JOINT RightToeBase
					{
						OFFSET -0.164730 -0.452590 2.363150
						CHANNELS 3 Zrotation Yrotation Xrotation
						End Site
						{
							OFFSET 0.000000 0.000000 0.000000
						}
					}
				}
			}
		}
	}
}
MOTION
Frames: 22
Frame Time: 0.008333
-20.017394 15.535962 -0.543380 63.432022 89.004506 91.278245 -7.286446 -0.516865 7.346756 -3.378461 -15.728493 -75.251035 -0.678762 2.013050 44.090479 1.579618 5.158625 -8.080027 0.462300 -0.000000 -31.091600 11.344516 -4.659025 0.069327 5.878035 -9.082369 7.158727 2.293669 0.527373 2.922865 0.195359 1.852065 2.166263 -0.002000 -0.000001 -83.164399
-19.761132 15.567982 -0.549270 68.464131 88.991723 96.402526 -7.187609 -0.343727 7.349171 -3.742266 -15.945420 -74.778772 -0.595945 2.052383 44.832870 1.633514 5.507845 -7.848906 0.506000 0.000000 -30.761100 11.556964 -4.758499 0.109590 5.599438 -9.051827 6.068055 2.019239 0.143838 5.611419 0.111832 1.058789 5.094523 -0.099900 0.000000 -86.781300
-19.507341 15.607349 -0.556850 72.529391 88.953208 100.520899 -7.126884 -0.175352 7.328299 -4.185630 -16.050430 -74.130079 -0.549742 2.081828 45.350227 1.669083 5.754214 -7.690180 0.533801 0.000000 -30.442100 11.752215 -4.832109 0.122095 5.336467 -9.113941 4.735055 1.691571 -0.246020 8.690470 -0.014197 0.219105 8.253782 -0.250000 0.000000 -89.506400
-19.256767 15.653578 -0.565237 75.721568 88.868575 103.721094 -7.093404 -0.010380 7.281146 -4.734054 -16.058176 -73.284986 -0.543674 2.100646 45.640342 1.687076 5.900305 -7.618149 0.542600 -0.000000 -30.139700 11.946737 -4.861785 0.106521 5.046636 -9.293181 3.165245 1.315562 -0.619968 12.142704 -0.184831 -0.610746 11.546876 -0.441700 0.000000 -90.935199
-19.010205 15.705981 -0.574350 78.074410 88.744346 106.043074 -7.085026 0.145793 7.205317 -5.375230 -15.966064 -72.252360 -0.576011 2.108635 45.717980 1.687145 5.943092 -7.640513 0.530399 -0.000000 -29.871200 12.136092 -4.832870 0.074437 4.749292 -9.534035 1.391195 0.910673 -0.953094 15.904650 -0.402939 -1.444687 14.832169 -0.679800 0.000000 -90.743900
-18.768106 15.763940 -0.583770 79.707017 88.583118 107.611287 -7.095205 0.293702 7.101265 -6.097354 -15.780535 -71.041774 -0.644401 2.104799 45.594022 1.670702 5.888568 -7.756088 0.498000 -0.000000 -29.656200 12.316083 -4.734752 0.034756 4.457895 -9.786543 -0.547097 0.507709 -1.228288 19.903624 -0.660825 -2.296939 17.920856 -0.972500 0.000000 -88.826000
-18.530287 15.826938 -0.592359 80.739500 88.368585 108.546048 -7.109545 0.441913 6.973468 -6.907263 -15.529991 -69.650747 -0.747378 2.086777 45.266476 1.642463 5.760502 -7.952749 0.449700 -0.000000 -29.511800 12.490929 -4.563909 -0.012193 4.148989 -10.043711 -2.614852 0.139122 -1.443760 24.072080 -0.939040 -3.158156 20.604975 -1.315900 0.000000 -85.384700
-18.296863 15.894359 -0.600847 81.424613 88.140396 109.111789 -7.132518 0.586042 6.826501 -7.743636 -15.204051 -68.119215 -0.876032 2.054337 44.763874 1.602757 5.559345 -8.218735 0.388400 0.000000 -29.457500 12.641727 -4.337537 -0.060201 3.887817 -10.252337 -4.777588 -0.168977 -1.612859 28.324177 -1.217956 -4.078375 22.713933 -1.729100 -0.000000 -80.877200
-18.067186 15.965758 -0.609173 81.930533 87.908671 109.482912 -7.160522 0.728045 6.668148 -8.575821 -14.819705 -66.470698 -1.024136 2.005970 44.096829 1.555259 5.304130 -8.534898 0.319600 -0.000001 -29.499701 12.765863 -4.074876 -0.111033 3.686395 -10.412481 -7.019318 -0.409869 -1.758022 32.588886 -1.478105 -5.062140 24.136518 -2.202600 -0.000000 -75.936999
-17.840839 16.040783 -0.616708 82.308732 87.663668 109.716607 -7.185104 0.872446 6.507472 -9.395631 -14.410445 -64.716625 -1.187443 1.939243 43.261291 1.505665 5.026638 -8.875888 0.249400 0.000000 -29.629099 12.870767 -3.791055 -0.167821 3.524471 -10.542494 -9.332735 -0.593001 -1.900681 36.802255 -1.706958 -6.086001 24.831924 -2.702800 0.000000 -71.152100
-17.617025 16.118965 -0.624173 82.644613 87.430570 109.912616 -7.212502 1.012908 6.352136 -10.155146 -13.982262 -62.898484 -1.357690 1.853814 42.275421 1.455967 4.739410 -9.222415 0.181800 0.000000 -29.830300 12.949360 -3.503987 -0.225670 3.438428 -10.622633 -11.714421 -0.733898 -2.055041 40.896445 -1.900851 -7.142028 24.822346 -3.200700 0.000001 -66.905600
-17.395215 16.199878 -0.631665 82.913273 87.210920 110.056444 -7.242152 1.147619 6.209302 -10.838727 -13.556064 -61.038158 -1.529971 1.748552 41.141547 1.409764 4.465292 -9.553850 0.120100 0.000001 -30.072900 13.004177 -3.221793 -0.281055 3.425394 -10.652499 -14.162488 -0.849221 -2.227076 44.811958 -2.059229 -8.186451 24.161363 -3.647900 0.000000 -63.330100
-17.174590 16.283182 -0.638911 83.027327 86.996342 110.066369 -7.270128 1.276590 6.084002 -11.448594 -13.155822 -59.142767 -1.701309 1.621975 39.853015 1.370960 4.230548 -9.850232 0.067100 0.000000 -30.319800 13.040981 -2.945688 -0.330082 3.464902 -10.634245 -16.667676 -0.951589 -2.415918 48.487708 -2.183909 -9.166756 22.932159 -3.996799 -0.000000 -60.443300
-16.954420 16.368292 -0.646630 82.946054 86.803976 109.910483 -7.302493 1.393815 5.977973 -11.963939 -12.779810 -57.235894 -1.866726 1.474509 38.421609 1.339897 4.041920 -10.100690 0.022800 0.000000 -30.537200 13.054450 -2.680386 -0.364767 3.573321 -10.548064 -19.217497 -1.046935 -2.616146 51.862705 -2.277505 -10.043815 21.230721 -4.217600 -0.000001 -58.074500
-16.734178 16.454732 -0.654623 82.548142 86.624584 109.464674 -7.335197 1.499865 5.890055 -12.400106 -12.438569 -55.307201 -2.025191 1.305274 36.838427 1.318541 3.916900 -10.291789 -0.012100 0.000000 -30.693599 13.049459 -2.422976 -0.380800 3.722337 -10.392491 -21.786909 -1.136437 -2.820492 54.880797 -2.342278 -10.770761 19.171222 -4.289200 0.000000 -56.080800
-16.513632 16.541856 -0.663500 81.773438 86.472873 108.668095 -7.374069 1.589992 5.815704 -12.748161 -12.116584 -53.363350 -2.173462 1.115611 35.115974 1.305274 3.852518 -10.418509 -0.038499 -0.000000 -30.773001 13.020813 -2.176413 -0.371237 3.919676 -10.147998 -24.349413 -1.216810 -3.020494 57.492767 -2.381498 -11.327236 16.882503 -4.218900 0.000000 -54.337099
-16.292341 16.628993 -0.673359 80.529478 86.347428 107.418892 -7.419104 1.663779 5.748297 -13.020074 -11.804124 -51.388339 -2.310627 0.906396 33.255489 1.299059 3.849978 -10.474408 -0.056700 -0.000000 -30.771700 12.969702 -1.940432 -0.333171 4.146851 -9.810239 -26.871536 -1.283111 -3.209141 59.665657 -2.397712 -11.696182 14.491527 -4.025700 0.000000 -52.702400
-16.070187 16.715311 -0.684559 78.756725 86.254920 105.647300 -7.474882 1.718933 5.679505 -13.217562 -11.479486 -49.375254 -2.434747 0.680434 31.273341 1.296887 3.898685 -10.457867 -0.067000 -0.000000 -30.703800 12.893486 -1.717876 -0.264314 4.401400 -9.371447 -29.321953 -1.330413 -3.380412 61.382696 -2.394815 -11.885154 12.124947 -3.746600 0.000000 -51.106400
-15.847042 16.799907 -0.697330 76.403543 86.197265 103.288778 -7.545371 1.754534 5.600259 -13.346074 -11.120659 -47.313720 -2.544386 0.441526 29.189317 1.295239 3.984696 -10.368473 -0.069800 0.000000 -30.597500 12.790957 -1.511469 -0.165367 4.678162 -8.831088 -31.670690 -1.355458 -3.530227 62.645883 -2.377206 -11.915916 9.891738 -3.423300 -0.000000 -49.526200
-15.623023 16.881668 -0.712001 73.441042 86.177502 100.303819 -7.636736 1.769725 5.502642 -13.406310 -10.703148 -45.205984 -2.637757 0.195507 27.038032 1.289677 4.086317 -10.210581 -0.065600 0.000000 -30.491800 12.659242 -1.325414 -0.038066 4.981737 -8.190349 -33.896683 -1.357172 -3.656005 63.474672 -2.350161 -11.825577 7.872867 -3.095600 0.000000 -47.979300
-15.398214 16.959516 -0.728662 69.849677 86.190609 96.661446 -7.752822 1.765834 5.379917 -13.405662 -10.209087 -43.053863 -2.714100 -0.050915 24.856640 1.276270 4.182327 -9.990020 -0.055200 0.000000 -30.428800 12.497675 -1.162263 0.112971 5.310886 -7.458652 -35.983660 -1.336481 -3.757144 63.902555 -2.318335 -11.652048 6.110830 -2.791200 -0.000000 -46.500000
-15.172351 17.032332 -0.747409 65.661440 86.231685 92.397886 -7.897617 1.745862 5.235216 -13.342274 -9.637831 -40.888794 -2.771846 -0.290216 22.693446 1.252745 4.255393 -9.715640 -0.039301 0.000000 -30.443700 12.303919 -1.024444 0.286645 5.674037 -6.643912 -37.940683 -1.295579 -3.833256 63.971587 -2.286542 -11.435876 4.615315 -2.528000 0.000000 -45.145400
